<?xml version="1.0" standalone="no"?>
<!DOCTYPE svg PUBLIC "-//W3C//DTD SVG 20010904//EN"
 "http://www.w3.org/TR/2001/REC-SVG-20010904/DTD/svg10.dtd">
<svg version="1.0" xmlns="http://www.w3.org/2000/svg"
 width="260.000000pt" height="260.000000pt" viewBox="0 0 260.000000 260.000000"
 preserveAspectRatio="xMidYMid meet">
<metadata>
Created by potrace 1.14, written by Peter Selinger 2001-2017
</metadata>
<g transform="translate(0.000000,260.000000) scale(0.100000,-0.100000)"
fill="#000000" stroke="none">
<path d="M1451 2553 c-9 -16 -12 -16 -21 -3 -5 9 -10 10 -10 3 0 -6 -8 -10
-17 -8 -10 1 -24 -3 -32 -9 -12 -9 -13 -8 -7 3 7 10 4 12 -12 7 -11 -4 -47 -8
-79 -10 -69 -4 -86 -8 -95 -21 -5 -6 -8 -5 -8 4 0 10 -3 11 -14 2 -10 -8 -16
-9 -21 -1 -4 6 -12 7 -24 0 -12 -6 -21 -6 -28 1 -6 6 -14 5 -23 -6 -7 -8 -25
-15 -41 -15 -16 0 -29 -5 -29 -12 0 -9 -4 -8 -10 2 -8 12 -10 12 -10 1 0 -9
-8 -12 -25 -9 -14 3 -28 1 -31 -4 -3 -5 -13 -7 -21 -4 -8 4 -11 1 -7 -5 4 -6
-1 -10 -12 -8 -11 1 -32 -4 -49 -10 -16 -7 -43 -15 -60 -18 -16 -2 -34 -9 -39
-14 -6 -5 -18 -9 -28 -9 -10 0 -18 -6 -18 -12 0 -9 -3 -8 -10 2 -8 12 -10 12
-16 -3 -3 -9 -10 -15 -14 -12 -5 3 -11 1 -15 -4 -3 -6 -12 -8 -21 -4 -9 3 -14
0 -12 -7 2 -7 -8 -14 -20 -15 -13 -1 -27 -6 -30 -12 -4 -5 -17 -9 -29 -8 -12
1 -20 -2 -18 -6 3 -4 -2 -10 -11 -13 -10 -4 -13 -2 -9 7 4 6 1 5 -7 -4 -7 -8
-28 -22 -46 -30 -17 -7 -32 -18 -32 -22 0 -5 -4 -5 -10 -2 -5 3 -10 2 -10 -3
0 -5 -12 -15 -27 -23 -16 -7 -36 -20 -45 -29 -31 -28 -43 -36 -61 -43 -10 -4
-15 -12 -12 -17 4 -6 3 -10 -2 -9 -20 3 -33 -2 -30 -13 1 -7 -4 -12 -10 -11
-7 2 -13 -1 -13 -7 0 -14 -48 -59 -55 -51 -4 3 -6 2 -4 -4 4 -16 -12 -45 -22
-39 -5 3 -9 -2 -9 -11 0 -10 -5 -13 -12 -9 -7 4 -8 3 -4 -4 4 -7 2 -20 -3 -29
-6 -10 -11 -13 -11 -8 0 6 -7 -5 -15 -24 -8 -18 -12 -37 -9 -42 3 -5 2 -9 -3
-8 -20 4 -24 -2 -12 -18 8 -10 9 -14 2 -10 -9 6 -11 -15 -9 -80 2 -95 10 -136
26 -141 6 -2 8 -8 4 -13 -3 -5 0 -9 7 -9 7 0 10 -3 6 -6 -3 -4 -1 -12 6 -20
30 -33 37 -44 37 -54 0 -6 5 -8 10 -5 6 3 10 -2 10 -11 0 -10 3 -14 6 -11 4 4
24 -13 45 -36 22 -23 39 -38 39 -34 0 5 15 -1 33 -12 19 -11 38 -17 42 -13 5
4 5 2 2 -4 -6 -11 49 -42 65 -36 5 1 8 -3 8 -9 0 -6 7 -8 16 -5 8 3 12 2 9 -4
-5 -9 23 -15 48 -11 4 0 7 -3 7 -8 0 -5 7 -12 16 -15 8 -3 12 -2 9 4 -3 5 7 3
22 -5 15 -8 38 -15 51 -15 13 0 21 -4 18 -9 -4 -5 2 -8 11 -6 10 1 23 -2 29
-7 7 -5 16 -8 20 -7 26 4 45 -2 39 -13 -4 -7 0 -5 8 5 13 16 15 16 21 1 5 -13
9 -14 20 -5 10 9 16 9 21 1 4 -6 13 -9 20 -6 7 2 24 -2 39 -9 15 -8 24 -10 21
-5 -4 6 -1 10 4 10 6 0 11 -6 11 -12 0 -9 4 -8 10 2 5 8 10 10 10 5 0 -6 9
-11 20 -11 11 0 20 4 20 9 0 4 6 5 13 0 20 -12 37 -12 37 0 0 7 4 6 9 -2 7
-12 13 -12 24 -3 7 7 17 9 21 5 13 -13 77 -13 69 0 -5 9 -3 9 8 1 17 -14 50
-15 67 -1 8 6 12 6 12 -2 0 -7 6 -11 13 -9 7 2 25 -9 40 -25 16 -15 23 -27 16
-27 -7 0 -3 -8 8 -17 21 -19 47 -61 48 -78 1 -5 7 -9 14 -7 7 1 10 -2 6 -8 -8
-13 20 -42 30 -32 5 4 5 1 1 -6 -4 -7 -2 -20 6 -29 11 -14 11 -16 -2 -8 -8 4
-6 -1 5 -12 11 -11 23 -19 27 -16 4 2 5 -6 3 -17 -2 -13 1 -20 11 -20 8 0 12
-4 9 -10 -3 -5 -1 -10 6 -10 7 0 9 -3 6 -6 -4 -4 3 -15 14 -25 12 -10 18 -23
14 -29 -3 -5 1 -13 9 -16 9 -3 16 -13 16 -20 0 -8 7 -17 16 -21 8 -3 13 -12
10 -20 -3 -8 -1 -11 4 -8 9 6 14 -8 11 -28 -1 -5 3 -6 9 -2 5 3 10 -1 10 -9 0
-9 5 -16 10 -16 6 0 10 -6 10 -14 0 -8 7 -17 16 -20 8 -3 12 -10 9 -16 -3 -5
1 -10 10 -10 9 0 13 -4 10 -10 -3 -5 -1 -10 4 -10 6 0 11 -6 11 -14 0 -8 10
-22 22 -30 15 -11 18 -16 8 -16 -13 0 -13 -1 0 -9 8 -6 18 -7 22 -5 4 3 5 -2
2 -10 -3 -9 -1 -16 4 -16 6 0 14 -10 17 -21 6 -17 9 -19 16 -8 6 10 9 6 9 -14
0 -16 3 -26 8 -24 9 6 33 -19 25 -27 -4 -3 1 -6 9 -6 17 0 32 -26 23 -40 -3
-5 0 -12 6 -16 8 -4 9 -3 5 4 -4 7 -1 12 9 12 9 0 14 -4 10 -9 -3 -5 15 -31
40 -57 25 -27 45 -53 45 -58 0 -5 3 -7 6 -3 8 7 53 -36 47 -45 -2 -5 1 -8 7
-8 6 0 22 -11 36 -25 14 -14 30 -23 35 -19 5 3 9 2 8 -3 -4 -20 2 -33 15 -33
8 0 17 -7 20 -16 3 -8 10 -13 14 -10 5 3 19 -8 32 -25 14 -16 30 -29 37 -29 7
0 13 -4 13 -10 0 -6 27 -10 61 -10 44 0 59 3 56 13 -2 6 -9 11 -14 10 -5 -1
-10 10 -11 24 -1 14 -11 33 -22 43 -11 10 -20 23 -20 29 0 6 -7 14 -15 17 -8
4 -12 10 -9 15 3 5 0 9 -6 9 -6 0 -9 4 -6 9 3 5 -1 12 -10 15 -8 3 -13 10 -10
15 3 5 -1 11 -9 15 -8 3 -15 15 -15 26 0 11 -3 20 -7 20 -5 0 -16 14 -25 31
-10 16 -13 27 -7 23 8 -4 7 0 0 15 -7 11 -14 21 -17 21 -3 0 -2 -5 2 -12 4 -6
3 -8 -4 -4 -6 3 -9 15 -7 25 2 11 -3 22 -13 26 -14 5 -14 7 -2 15 12 8 12 10
-3 16 -9 3 -14 10 -11 15 3 5 1 9 -5 9 -5 0 -8 9 -6 20 2 11 0 18 -6 15 -5 -4
-9 3 -9 15 0 13 -4 19 -11 14 -7 -4 -6 2 2 17 11 21 10 23 -3 11 -13 -11 -15
-8 -12 18 2 17 -1 30 -7 30 -6 0 -9 9 -6 20 3 14 0 20 -10 20 -13 0 -13 2 -2
17 8 9 9 14 3 10 -7 -4 -15 0 -18 9 -4 10 -2 13 7 8 9 -5 9 -4 0 6 -6 7 -9 18
-7 25 3 7 1 16 -5 20 -6 3 -11 20 -11 36 0 22 -4 28 -12 23 -8 -5 -7 0 2 11
13 17 13 18 0 13 -12 -4 -15 4 -13 46 0 29 -4 55 -10 59 -9 6 -9 10 0 14 9 3
10 10 4 21 -13 26 -20 122 -8 115 6 -4 7 -1 1 8 -11 17 -11 36 -2 72 4 15 3
25 -2 22 -12 -7 1 112 15 135 3 5 2 10 -3 10 -6 0 -8 9 -5 21 4 16 8 17 14 7
7 -10 9 -9 9 4 0 10 3 17 8 17 21 -4 32 2 26 14 -5 7 0 6 11 -3 10 -8 16 -10
12 -3 -7 12 8 19 55 28 13 3 28 12 35 21 6 9 16 13 21 10 6 -3 12 -1 14 4 2 6
11 12 20 13 9 2 24 9 34 17 16 13 17 13 9 0 -8 -13 -6 -13 8 -1 9 7 15 17 12
21 -3 4 3 7 13 6 9 0 16 5 14 12 -1 8 2 11 7 7 10 -6 71 21 71 31 0 3 -5 2
-12 -2 -7 -4 -8 -3 -4 5 4 6 12 9 17 6 5 -4 16 1 25 9 9 9 20 14 25 11 5 -4 6
2 2 11 -4 11 -3 15 5 10 6 -3 23 5 38 19 14 13 30 22 35 19 5 -3 6 3 2 12 -4
11 -2 15 4 11 6 -4 14 0 17 9 3 8 10 12 16 9 6 -4 7 1 3 11 -4 12 -3 15 5 10
7 -4 12 -3 12 1 0 5 11 20 24 35 14 14 22 29 19 32 -4 3 1 6 11 6 9 0 14 5 11
10 -3 6 -1 10 4 10 6 0 10 3 10 8 -3 19 2 33 11 27 10 -6 14 7 11 34 -2 8 2
10 10 5 9 -5 10 -2 6 9 -3 10 -2 17 4 17 6 0 7 5 4 10 -3 6 -2 10 4 10 5 0 8
9 6 21 -3 16 0 19 12 14 16 -5 16 -4 1 12 -13 14 -14 22 -6 37 8 13 8 21 1 23
-6 2 -8 19 -6 38 2 18 -1 36 -7 40 -15 9 -12 28 3 19 6 -4 4 2 -5 13 -10 11
-18 25 -18 31 0 6 -8 15 -17 21 -10 5 -15 12 -11 16 8 8 -90 111 -103 108 -5
-2 -8 0 -6 5 1 4 -3 8 -8 10 -5 2 -14 10 -18 18 -5 8 -12 12 -17 9 -4 -3 -11
2 -14 11 -3 8 -10 13 -15 10 -5 -4 -17 2 -27 11 -10 10 -20 17 -23 16 -3 0 -5
2 -4 7 1 4 -9 8 -23 8 -13 0 -33 7 -43 16 -9 9 -24 16 -31 16 -21 0 -84 24
-92 35 -5 6 -8 4 -8 -5 0 -13 -1 -13 -10 0 -8 13 -10 13 -10 1 0 -11 -3 -11
-13 3 -7 9 -17 16 -22 15 -6 -2 -30 1 -55 6 -25 5 -52 9 -62 9 -9 1 -19 4 -23
8 -4 4 -14 4 -23 1 -8 -4 -13 -2 -10 3 4 5 -22 9 -59 9 -36 0 -67 4 -70 8 -3
4 -11 3 -18 -3 -10 -8 -16 -7 -24 7 -6 10 -11 13 -11 6 0 -8 -9 -9 -30 -3 -19
5 -28 5 -25 -1 9 -13 -9 -11 -23 3 -8 8 -12 8 -12 1 0 -13 -32 -12 -41 1 -4 5
-13 5 -20 0 -18 -11 -59 -11 -66 0 -4 5 -1 6 7 1 9 -5 11 -4 6 3 -10 16 -13
15 -25 -5z"/>
</g>
</svg>
